<?xml version="1.0" encoding="utf-8"?>
<!-- Generator: Adobe Illustrator 15.1.0, SVG Export Plug-In . SVG Version: 6.00 Build 0)  -->
<!DOCTYPE svg PUBLIC "-//W3C//DTD SVG 1.1//EN" "http://www.w3.org/Graphics/SVG/1.1/DTD/svg11.dtd">
<svg version="1.1" id="Camada_1" xmlns="http://www.w3.org/2000/svg" xmlns:xlink="http://www.w3.org/1999/xlink" x="0px" y="0px"
	 width="538.664px" height="345.055px" viewBox="28.139 207.769 538.664 345.055"
	 enable-background="new 28.139 207.769 538.664 345.055" xml:space="preserve">
<rect x="113.065" y="223.153" fill="#8B86B8" stroke="#000000" stroke-miterlimit="10" width="380.22" height="251.647"/>
<rect x="127.901" y="238.538" fill="#9F97C3" stroke="#000000" stroke-miterlimit="10" width="350.549" height="220.88"/>
<ellipse fill="#1F215B" stroke="#000000" stroke-miterlimit="10" cx="303.175" cy="464.437" rx="12.433" ry="10.365"/>
<rect x="270.038" y="474.802" fill="#826DA7" stroke="#000000" stroke-miterlimit="10" width="66.278" height="78.022"/>
<line fill="none" stroke="#000000" stroke-width="5" stroke-miterlimit="10" x1="254.824" y1="341.835" x2="254.824" y2="274.802"/>
<line fill="none" stroke="#000000" stroke-width="5" stroke-miterlimit="10" x1="358.121" y1="274.252" x2="358.121" y2="342.385"/>
<g>
	<g>
		<path d="M235.16,389.554c22.771,54.804,117.931,49.646,136.021-6.329c1.027-3.181-8.629-1.851-9.641,1.279
			c-16.363,50.625-96.954,50.038-116.722,2.462C243.473,383.724,233.971,386.692,235.16,389.554L235.16,389.554z"/>
	</g>
</g>
<path fill="#826DA7" stroke="#000000" stroke-miterlimit="10" d="M-310.011,691.285"/>
<g>
	<path fill="#FEEE00" d="M57.022,228.648c13.187,2.198,13.187-13.187,16.483-21.978c2.198,8.791,8.792,14.286,17.583,13.187"/>
	<g>
		<path d="M56.421,229.14c13.956,1.792,14.563-12.797,18.046-22.604c-0.643,0.131-1.286,0.262-1.928,0.393
			c2.498,8.867,9.094,14.228,18.404,13.417c0.909-0.079,1.633-1.096,0.288-0.979c-8.768,0.763-14.514-4.98-16.761-12.956
			c-0.184-0.653-1.764-0.07-1.928,0.393c-2.799,7.879-3.136,22.866-14.92,21.353C57.067,228.085,55.355,229.003,56.421,229.14
			L56.421,229.14z"/>
	</g>
</g>
<g>
	<path fill="#FEEE00" d="M58.121,229.747c8.791-2.198,16.483,1.099,17.582,9.89c2.198-6.593,5.495-13.187,8.792-18.681"/>
	<g>
		<path d="M58.212,230.087c8.056-1.762,15.096,1.378,16.525,9.809c0.085,0.503,1.79-0.037,1.921-0.418
			c2.271-6.543,5.275-12.721,8.792-18.681c0.183-0.31-1.615-0.184-1.911,0.318c-3.517,5.96-6.521,12.138-8.792,18.681
			c0.641-0.139,1.281-0.279,1.921-0.418c-1.626-9.599-10.174-11.822-18.639-9.972C56.876,229.659,57.077,230.335,58.212,230.087
			L58.212,230.087z"/>
	</g>
</g>
<g>
	<path fill="#FEEE00" d="M68.011,270.406c4.396-6.593,9.89-13.188,10.989-20.879c-3.297,8.791,4.396,14.286,13.187,12.088"/>
	<g>
		<path d="M68.965,270.244c4.445-6.571,9.537-12.878,10.989-20.879c0.094-0.517-1.761-0.14-1.909,0.325
			c-3.09,9.67,5.587,14.055,13.969,12.31c0.779-0.162,1.692-1.049,0.345-0.769c-8.227,1.712-15.131-3.334-12.405-11.866
			c-0.636,0.108-1.273,0.217-1.909,0.325c-1.453,8-6.544,14.308-10.989,20.879C66.888,270.818,68.64,270.725,68.965,270.244
			L68.965,270.244z"/>
	</g>
</g>
<g>
	<path fill="#FEEE00" d="M68.894,270.424c5.665,1.562,10.143,3.487,11.99,9.515c1.708-7.118,2.232-13.873,8.419-19.064"/>
	<g>
		<path d="M68.108,270.826c5.45,1.55,9.843,3.718,11.811,9.372c0.174,0.501,1.821,0.021,1.922-0.415
			c1.641-7.059,2.67-13.86,8.345-18.954c0.47-0.422-1.392-0.244-1.764,0.09c-5.719,5.133-6.831,12.02-8.494,19.175
			c0.641-0.138,1.282-0.276,1.922-0.415c-2.016-5.794-6.565-8.063-12.17-9.658C69.197,269.884,67.47,270.645,68.108,270.826
			L68.108,270.826z"/>
	</g>
</g>
<g>
	<path fill="#FEEE00" d="M546.033,248.428c5.494-1.099,8.791-7.692,8.791-15.384c1.099,6.593,5.494,4.396,8.791,7.692"/>
	<g>
		<path d="M546.203,249.064c7.132-1.796,9.464-9.533,9.598-16.101c-0.646,0.113-1.295,0.226-1.941,0.339
			c0.443,2.101,1.12,3.752,2.944,4.956c1.948,1.285,4.241,1.399,6.063,3.022c0.614,0.547,2.317-0.358,1.496-1.089
			c-1.175-1.046-2.421-1.639-3.895-2.154c-2.784-0.975-4.051-2.279-4.68-5.253c-0.171-0.809-1.928-0.407-1.942,0.339
			c-0.113,5.576-1.707,13.087-7.983,14.667C544.667,248.093,545.014,249.364,546.203,249.064L546.203,249.064z"/>
	</g>
</g>
<g>
	<path fill="#FEEE00" d="M543.835,249.527c6.593-1.099,12.088,1.099,15.385,6.593c2.197-5.494,4.396-10.989,6.594-16.483"/>
	<g>
		<path d="M543.76,250.274c6.127-0.827,11.146,1.022,14.579,6.283c0.396,0.605,1.57,0.294,1.811-0.305
			c2.197-5.495,4.396-10.989,6.593-16.483c0.426-1.063-1.52-1.112-1.857-0.263c-2.196,5.495-4.396,10.989-6.593,16.483
			c0.604-0.102,1.206-0.204,1.811-0.305c-3.748-5.745-9.513-7.805-16.19-6.904C542.815,248.928,542.452,250.451,543.76,250.274
			L543.76,250.274z"/>
	</g>
</g>
<g>
	<path fill="#FEEE00" d="M507.571,227.549c7.691-3.297,6.593-12.088,8.791-19.78c2.197,6.593,7.691,9.89,14.285,8.792"/>
	<g>
		<path d="M508.147,227.75c7.824-3.869,7.228-12.726,9.174-20.129c-0.643,0.135-1.283,0.271-1.926,0.406
			c2.53,6.729,8.058,9.862,15.096,8.972c0.854-0.108,1.667-1.049,0.313-0.878c-6.555,0.829-11.236-2.653-13.478-8.611
			c-0.204-0.543-1.803-0.058-1.925,0.406c-1.787,6.799-1.132,15.834-8.408,19.432C505.838,227.92,507.613,228.014,508.147,227.75
			L508.147,227.75z"/>
	</g>
</g>
<g>
	<path fill="#FEEE00" d="M504.825,227.549c7.691-1.099,14.285,2.198,16.482,9.89c2.197-6.593,5.494-14.286,9.891-19.78"/>
	<g>
		<path d="M504.722,228.191c7.402-0.815,13.253,2.331,15.621,9.507c0.279,0.846,1.73,0.262,1.939-0.351
			c2.354-6.893,5.263-13.632,9.712-19.451c0.729-0.956-1.11-1.104-1.592-0.475c-4.616,6.038-7.625,12.954-10.067,20.109
			c0.646-0.117,1.293-0.234,1.939-0.351c-2.611-7.913-9.34-11.155-17.347-10.272C503.903,227.021,503.396,228.337,504.722,228.191
			L504.722,228.191z"/>
	</g>
</g>
<g>
	<path fill="#FEEE00" d="M29,269.667c5.333-0.667,4.667-8.667,4.667-13.333c4.667,3.333,6,12,13.333,10"/>
	<g>
		<path d="M28.815,270.006c6.573-1.312,5.847-8.624,5.817-13.931c-0.625,0.194-1.251,0.389-1.877,0.583
			c4.974,3.891,6.315,11.725,14.06,10.015c0.739-0.163,1.719-0.976,0.369-0.678c-6.523,1.44-8.45-6.733-12.606-9.985
			c-0.316-0.247-1.88,0.116-1.877,0.583c0.018,3.287,1.039,11.827-3.517,12.736C28.438,269.477,27.46,270.276,28.815,270.006
			L28.815,270.006z"/>
	</g>
</g>
<g>
	<path fill="#FEEE00" d="M31.333,270.333c3.333,2.667,6,6,6.667,10c1.333-6,4-11.333,9.333-14"/>
	<g>
		<path d="M30.591,270.898c3.143,2.604,5.6,5.62,6.443,9.694c0.194,0.938,1.782,0.364,1.945-0.329
			c1.284-5.449,3.659-10.58,8.785-13.348c1.157-0.625,0.113-1.692-0.862-1.165c-5.708,3.083-8.439,8.528-9.882,14.652
			c0.648-0.109,1.297-0.219,1.945-0.329c-0.893-4.313-3.563-7.549-6.89-10.306C31.401,269.209,29.723,270.179,30.591,270.898
			L30.591,270.898z"/>
	</g>
</g>
<g>
	<path fill="#FEEE00" d="M509,272c6-2,7-8,6-15c1,6,5,7,10,10"/>
	<g>
		<path d="M509.373,272.366c6.754-2.549,7.426-9.239,6.593-15.625c-0.644,0.172-1.288,0.345-1.932,0.518
			c1.147,5.707,5.598,7.497,10.191,10.192c0.515,0.301,2.306-0.457,1.547-0.902c-4.416-2.59-8.699-4.307-9.808-9.808
			c-0.126-0.627-2.019-0.152-1.932,0.518c0.712,5.457,0.636,12.094-5.407,14.375C507.356,272.113,508.526,272.686,509.373,272.366
			L509.373,272.366z"/>
	</g>
</g>
<g>
	<path fill="#FEEE00" d="M506,272c7-3,13,1,14,8c1-5,4-9,6-13"/>
	<g>
		<path d="M506.331,272.208c6.673-2.533,11.559,1.837,12.703,8.05c0.072,0.399,1.83-0.063,1.918-0.432c1.137-4.76,3.769-8.712,6-13
			c0.134-0.258-1.652-0.137-1.904,0.346c-2.229,4.288-4.861,8.24-6,13c0.641-0.144,1.278-0.288,1.918-0.432
			c-1.457-7.911-8.197-10.645-15.297-7.95C504.38,272.281,505.606,272.484,506.331,272.208L506.331,272.208z"/>
	</g>
</g>
</svg>
